PathFileType	4	(X/Y/Z)
DataRate	CameraRate	NumFrames	NumMarkers	Units	OrigDataRate	OrigDataStartFrame	OrigNumFrames	
  100.0	  100.0	     5	     56	     mm	  100.0	      44	     86
Frame#	Time	LASI			RASI			LPSI			RPSI			RTH1			RTH2			RTH3			RLFC			RMFC			LTH1			LTH2			LTH3			LLFC			LMFC			RTB1			RTB2			RTB3			RLMAL			RMMAL			LTB1			LTB2			LTB3			LMMAL			LLMAL			RCAL			RTOE			RMT5			LCAL			LTOE			LMT5			LACR			RACR			CLAV			C7			LASH			LPSH			RASH			RPSH			RUA1			RUA2			RUA3			RLEL			RMEL			LUA1			LUA2			LUA3			LLEL			LMEL			RFAsuperior			RFAradius			RFAulna			LFAsuperior			LFAradius			LFAulna			RHJC			LHJC			
		X1	Y1	Z1	X2	Y2	Z2	X3	Y3	Z3	X4	Y4	Z4	X5	Y5	Z5	X6	Y6	Z6	X7	Y7	Z7	X8	Y8	Z8	X9	Y9	Z9	X10	Y10	Z10	X11	Y11	Z11	X12	Y12	Z12	X13	Y13	Z13	X14	Y14	Z14	X15	Y15	Z15	X16	Y16	Z16	X17	Y17	Z17	X18	Y18	Z18	X19	Y19	Z19	X20	Y20	Z20	X21	Y21	Z21	X22	Y22	Z22	X23	Y23	Z23	X24	Y24	Z24	X25	Y25	Z25	X26	Y26	Z26	X27	Y27	Z27	X28	Y28	Z28	X29	Y29	Z29	X30	Y30	Z30	X31	Y31	Z31	X32	Y32	Z32	X33	Y33	Z33	X34	Y34	Z34	X35	Y35	Z35	X36	Y36	Z36	X37	Y37	Z37	X38	Y38	Z38	X39	Y39	Z39	X40	Y40	Z40	X41	Y41	Z41	X42	Y42	Z42	X43	Y43	Z43	X44	Y44	Z44	X45	Y45	Z45	X46	Y46	Z46	X47	Y47	Z47	X48	Y48	Z48	X49	Y49	Z49	X50	Y50	Z50	X51	Y51	Z51	X52	Y52	Z52	X53	Y53	Z53	X54	Y54	Z54	X55	Y55	Z55	X56	Y56	Z56	

256	2.56000	729.39926	1022.04185	-607.19618	484.57728	1023.76220	-596.60516	648.70709	1047.43185	-768.23876	551.62886	1044.65452	-767.53542	408.94713	787.03766	-675.11142	414.05708	697.65125	-626.72909	422.07303	610.76201	-700.33207	418.16605	515.65504	-723.33935	525.80581	491.41960	-691.24783	791.87549	826.70601	-663.38179	792.86133	718.99248	-623.15868	784.27827	613.47609	-693.76880	786.24246	527.28955	-685.46813	673.57704	507.66805	-680.42338	451.83815	387.80238	-679.14637	401.02380	321.82136	-727.75642	448.55209	202.75730	-706.13679	411.82978	125.82234	-764.75553	484.95839	137.76317	-729.83825	752.03994	405.44093	-661.15032	809.49362	338.31030	-728.42818	762.68680	219.47804	-687.92683	728.47749	132.76642	-694.82656	799.96025	119.80431	-748.24746	466.60863	108.20269	-813.27627	464.94639	70.99676	-593.14742	367.93196	45.83969	-644.22354	745.36759	107.24531	-797.20089	771.86659	71.53621	-580.08141	860.32993	47.37044	-637.65007	755.16929	1493.65635	-705.33241	454.19322	1497.54938	-686.08042	590.39386	1440.68758	-598.88341	597.58001	1518.14376	-750.17305	764.30329	1431.81783	-641.60065	759.64321	1439.37318	-784.95336	452.27440	1439.35122	-628.66158	427.53977	1445.66041	-761.50782	368.31626	1362.03410	-700.85587	382.18835	1287.52872	-756.07739	365.44242	1215.42461	-685.51105	361.22863	1146.41484	-707.12075	424.64569	1146.20764	-734.87893	834.69809	1353.57677	-736.87755	795.10251	1287.23458	-780.28396	839.97721	1237.87984	-717.96363	844.90747	1153.01601	-729.08210	783.65307	1146.88392	-756.06592	353.42298	1055.82579	-638.50602	412.35552	938.34227	-575.40469	388.35765	922.08717	-640.66381	842.73497	1077.26891	-642.69980	794.75979	945.02193	-580.19477	807.38435	922.02738	-644.35309	509.23747	936.63188	-649.57367	685.22934	948.79572	-669.68216	
257	2.57000	729.36297	1022.05450	-607.14255	484.52627	1023.79834	-596.68249	648.92328	1047.48239	-768.32117	551.84146	1044.68626	-767.69246	409.03349	787.01684	-675.23689	413.98261	697.68481	-626.75355	422.19357	610.75282	-700.46544	418.27247	515.65724	-723.45356	525.83552	491.42973	-691.24037	791.99508	826.72561	-663.47659	792.85172	718.98494	-622.96497	784.38854	613.52058	-693.81966	786.29546	527.30238	-685.39738	673.59049	507.68370	-680.39774	451.83121	387.81272	-679.13642	401.02100	321.82789	-727.77238	448.54633	202.77067	-706.16381	411.91681	125.83519	-764.80684	485.02797	137.77449	-729.84496	751.97863	405.43400	-661.08596	809.51118	338.32409	-728.35498	762.69493	219.49526	-687.84375	728.53002	132.80016	-694.86660	800.01459	119.83303	-748.28306	466.65777	108.20406	-813.27697	465.00510	70.98684	-593.18931	368.03319	45.80358	-644.27343	745.41849	107.27520	-797.23426	771.93930	71.49488	-580.14255	860.39019	47.40856	-637.69494	755.07810	1493.74461	-704.74991	454.08207	1497.51630	-685.30088	590.27727	1440.51303	-598.26048	597.48413	1518.25444	-749.52316	764.37719	1431.78263	-641.13296	759.44661	1439.85434	-784.60126	452.05092	1439.24489	-628.02236	427.74165	1445.89340	-761.08899	368.83958	1361.82389	-700.90271	382.87987	1287.84054	-756.82887	366.86093	1214.91607	-686.72566	363.31298	1146.08921	-709.12501	426.83562	1146.68477	-736.62427	834.18361	1353.86677	-737.06909	794.57143	1288.29416	-781.31280	838.68898	1237.79000	-719.21388	842.58537	1152.91465	-731.29226	781.26350	1147.71247	-758.16180	355.24939	1054.64221	-641.75004	414.02025	936.40439	-579.70709	390.72730	921.01085	-646.09872	840.10872	1076.42769	-645.79057	791.65618	943.86964	-584.20251	803.86032	921.47596	-648.45940	509.24604	936.68455	-649.76985	685.27134	948.80690	-669.60631	
258	2.58000	729.34791	1022.09058	-607.07244	484.48643	1023.81278	-596.81886	649.11204	1047.51555	-768.45100	552.02167	1044.70929	-767.87187	409.09575	786.99599	-675.45175	413.90360	697.71099	-626.81079	422.26587	610.74711	-700.60068	418.34188	515.65883	-723.54174	525.84585	491.43098	-691.22196	792.20878	826.76234	-664.05149	792.88337	718.98688	-622.84397	784.48349	613.53691	-693.87170	786.33982	527.29682	-685.31178	673.65607	507.66002	-680.38894	451.83058	387.82467	-679.11914	401.02304	321.82373	-727.76466	448.54688	202.78565	-706.18347	411.98332	125.84002	-764.86023	485.08249	137.78332	-729.85118	751.93175	405.41549	-661.02896	809.53288	338.32497	-728.29047	762.70701	219.50108	-687.77175	728.57623	132.81474	-694.89130	800.06261	119.84260	-748.30332	466.70902	108.20555	-813.28754	465.06216	70.98499	-593.22699	368.13267	45.77398	-644.31808	745.46402	107.29287	-797.25768	771.98148	71.47040	-580.17327	860.45479	47.43052	-637.71237	754.97596	1493.82797	-704.22115	454.02461	1497.50075	-684.54545	590.21380	1440.31814	-597.66868	597.41089	1518.37159	-748.89349	764.46717	1431.73536	-640.72379	759.17454	1440.30436	-784.34892	451.88240	1439.15083	-627.42162	427.85288	1446.14477	-760.66929	369.26351	1361.64692	-700.89746	383.64307	1288.12204	-757.56152	367.89479	1214.56527	-687.82844	364.74594	1145.97548	-710.85936	428.42956	1147.06425	-737.87256	833.57517	1354.19896	-737.36868	793.96008	1289.18090	-782.23502	837.76560	1237.88800	-720.44521	841.00329	1153.02978	-733.21420	779.61868	1148.49778	-759.87974	356.02938	1053.83563	-644.53457	414.12218	934.91444	-583.05358	391.91623	920.23204	-650.61202	838.57803	1075.97863	-648.37303	790.00242	943.05843	-587.52083	802.05614	921.16546	-652.36745	509.28225	936.70875	-649.96109	685.33276	948.83452	-669.56865	
259	2.59000	729.34878	1022.13178	-607.03249	484.43910	1023.80760	-597.00588	649.24164	1047.53855	-768.60176	552.14914	1044.72725	-768.06417	409.11583	786.99796	-675.73035	413.82142	697.72901	-626.92122	422.27236	610.74882	-700.73747	418.35219	515.65614	-723.57998	525.82978	491.42767	-691.19255	792.36941	826.79848	-664.62884	792.92576	718.99518	-622.84841	784.54297	613.52347	-693.91015	786.37133	527.27869	-685.24004	673.70366	507.63873	-680.38377	451.81147	387.82910	-679.11403	401.01678	321.80991	-727.74367	448.52893	202.79312	-706.21526	412.01653	125.83466	-764.89414	485.10357	137.78007	-729.85286	751.90681	405.39416	-660.98591	809.55220	338.31786	-728.24639	762.71650	219.49621	-687.72510	728.60339	132.81640	-694.90056	800.09158	119.83925	-748.30813	466.74550	108.20454	-813.29994	465.09882	70.98567	-593.25319	368.19652	45.75568	-644.34439	745.48495	107.28524	-797.22561	771.98136	71.46156	-580.17588	860.50045	47.43764	-637.71065	754.84536	1493.90595	-703.75661	453.97353	1497.50263	-683.83507	590.17205	1440.12197	-597.13394	597.31294	1518.49899	-748.24753	764.50699	1431.66836	-640.42382	758.78764	1440.71799	-784.18969	451.74526	1439.07014	-626.85033	427.84319	1446.38906	-760.25068	369.52420	1361.51176	-700.90610	384.39183	1288.35956	-758.19964	368.45326	1214.40037	-688.77991	365.45425	1146.05343	-712.27203	429.39126	1147.34047	-738.60022	832.85821	1354.55843	-737.81575	793.21558	1289.86278	-783.07485	837.20613	1238.14887	-721.67042	840.15005	1153.33108	-734.84633	778.67873	1149.16620	-761.17381	355.71680	1053.38810	-646.89489	412.50460	933.87432	-585.43516	391.98424	919.63043	-653.75223	838.19640	1075.83470	-650.43876	789.97862	942.55837	-590.07880	801.81030	921.04589	-655.38045	509.32032	936.70993	-650.15387	685.38726	948.86792	-669.59313	
260	2.60000	729.35523	1022.15234	-607.07997	484.38789	1023.80488	-597.21973	649.29742	1047.56049	-768.75216	552.21547	1044.73942	-768.28081	409.09576	787.03442	-676.01224	413.74404	697.74773	-627.09578	422.21623	610.75273	-700.86509	418.30385	515.64260	-723.58366	525.78657	491.42315	-691.17221	792.30846	826.80682	-664.52931	792.94413	719.01265	-622.95371	784.56264	613.50026	-693.94880	786.38682	527.26215	-685.21402	673.70107	507.64119	-680.38783	451.76193	387.81899	-679.13577	400.99388	321.79665	-727.72895	448.48056	202.78604	-706.27391	412.01510	125.82510	-764.90479	485.08706	137.76492	-729.85276	751.90310	405.38059	-660.96790	809.56271	338.30783	-728.23039	762.71879	219.48785	-687.70508	728.60596	132.81887	-694.91056	800.09597	119.83670	-748.31368	466.74933	108.20225	-813.31016	465.10153	70.98677	-593.26513	368.20336	45.74670	-644.34774	745.47943	107.26421	-797.17297	771.96662	71.45580	-580.17949	860.51169	47.44150	-637.71414	754.68850	1493.98517	-703.37343	453.88915	1497.52417	-683.22023	590.11376	1439.94268	-596.67988	597.16332	1518.63659	-747.59868	764.48194	1431.59913	-640.24681	758.29903	1441.09255	-784.10574	451.62650	1439.00261	-626.34917	427.75951	1446.61138	-759.86795	369.62987	1361.47529	-701.01793	385.03273	1288.55416	-758.69815	368.40922	1214.45749	-689.63140	365.40822	1146.32076	-713.37943	429.69612	1147.53604	-738.87131	832.06574	1354.93547	-738.41281	792.33939	1290.34256	-783.81870	837.02947	1238.56250	-722.89153	840.00785	1153.79902	-736.20411	778.36924	1149.67596	-761.98756	354.32772	1053.30661	-648.88482	409.25374	933.26769	-586.98625	390.77999	919.20834	-655.28588	838.97244	1075.96496	-652.07773	791.68275	942.36589	-591.83095	803.06833	921.10457	-657.28317	509.33296	936.71017	-650.35377	685.40880	948.88917	-669.69973	
